<svg id="Layer_1" enable-background="new 0 0 64 64" height="512" viewBox="0 0 64 64" width="512" xmlns="http://www.w3.org/2000/svg"><path d="m56 17.5h-12c-.276 0-.5.224-.5.5v6 6c0 .276.224.5.5.5h5.5v1h-7.051c-.232-1.14-1.242-2-2.449-2h-.262l1.721-4.303c.001-.002.001-.003.002-.005l.003-.006c.01-.024.008-.048.013-.072.009-.038.023-.074.023-.114v-14-3c0-.276-.224-.5-.5-.5h-18c-.276 0-.5.224-.5.5v3 14c0 .059.015.113.033.166.002.006 0 .013.003.02l.003.006c.001.002.001.003.002.005l1.721 4.303h-.262c-1.208 0-2.217.86-2.449 2h-7.051v-1h5.5c.276 0 .5-.224.5-.5v-6-6c0-.276-.224-.5-.5-.5h-12c-.276 0-.5.224-.5.5v6 6c0 .276.224.5.5.5h5.5v1h-5.5c-.276 0-.5.224-.5.5s.224.5.5.5h5.5v1h-5.5c-.276 0-.5.224-.5.5v6 6c0 .276.224.5.5.5h12c.276 0 .5-.224.5-.5v-6-6c0-.276-.224-.5-.5-.5h-5.5v-1h7.051c.232 1.14 1.242 2 2.449 2h1.5v17h-2.5c-.276 0-.5.224-.5.5v4c0 .276.224.5.5.5h18c.276 0 .5-.224.5-.5v-4c0-.276-.224-.5-.5-.5h-2.5v-17h1.5c1.208 0 2.217-.86 2.449-2h7.051v1h-5.5c-.276 0-.5.224-.5.5v6 6c0 .276.224.5.5.5h12c.276 0 .5-.224.5-.5v-6-6c0-.276-.224-.5-.5-.5h-5.5v-1h5.5c.276 0 .5-.224.5-.5s-.224-.5-.5-.5h-5.5v-1h5.5c.276 0 .5-.224.5-.5v-6-6c0-.276-.224-.5-.5-.5zm-47.5 1h11v5h-5v-2.5c0-.276-.224-.5-.5-.5s-.5.224-.5.5v2.5h-5zm0 6h5v2.5c0 .276.224.5.5.5s.5-.224.5-.5v-2.5h5v5h-11zm11 21h-11v-5h5v2.5c0 .276.224.5.5.5s.5-.224.5-.5v-2.5h5zm0-6h-5v-2.5c0-.276-.224-.5-.5-.5s-.5.224-.5.5v2.5h-5v-5h11zm21-31v2h-17v-2zm-16.762 17h13.262c.276 0 .5-.224.5-.5s-.224-.5-.5-.5h-13.5v-13h17v13.405l-1.838 4.595h-13.324zm16.762 30h-17v-3h2.5 12 2.5zm-14-4v-11h11v11zm11-12h-11v-5h11zm2.5-6h-16c-.827 0-1.5-.673-1.5-1.5s.673-1.5 1.5-1.5h16c.827 0 1.5.673 1.5 1.5s-.673 1.5-1.5 1.5zm15.5 12h-11v-5h5v2.5c0 .276.224.5.5.5s.5-.224.5-.5v-2.5h5zm0-6h-5v-2.5c0-.276-.224-.5-.5-.5s-.5.224-.5.5v2.5h-5v-5h11zm-11-21h11v5h-5v-2.5c0-.276-.224-.5-.5-.5s-.5.224-.5.5v2.5h-5zm11 11h-11v-5h5v2.5c0 .276.224.5.5.5s.5-.224.5-.5v-2.5h5z"/><path d="m32 13.5c-2.481 0-4.5 2.019-4.5 4.5s2.019 4.5 4.5 4.5 4.5-2.019 4.5-4.5-2.019-4.5-4.5-4.5zm0 8c-1.93 0-3.5-1.57-3.5-3.5s1.57-3.5 3.5-3.5 3.5 1.57 3.5 3.5-1.57 3.5-3.5 3.5z"/></svg>